<svg width="57" height="56" viewBox="0 0 57 56" fill="none" xmlns="http://www.w3.org/2000/svg">
<path d="M42.3982 46.7915C42.3982 49.3425 44.4661 51.4105 47.0171 51.4105C49.5681 51.4105 51.6361 49.3425 51.6361 46.7915V28.7294C51.6361 26.1784 49.5334 24.1105 46.9824 24.1105C44.4695 24.1105 42.3982 22.0734 42.3982 19.5605V19.4226C42.3982 16.9858 40.4228 15.0105 37.986 15.0105C35.5493 15.0105 33.5739 16.9858 33.5739 19.4226V19.5605C33.5739 22.0734 31.5368 24.1105 29.0239 24.1105H28.886C26.3731 24.1105 24.336 22.0734 24.336 19.5605V19.4225C24.336 16.9858 22.3606 15.0105 19.9239 15.0105C17.4872 15.0105 15.5118 13.0009 15.5118 10.5642C15.5118 8.08934 13.5056 6.04834 11.0308 6.04834H10.8929C8.3419 6.04834 6.27393 8.11631 6.27393 10.6673V46.7916C6.27393 49.3425 8.34188 51.4105 10.8928 51.4105C13.4438 51.4105 15.5117 49.3425 15.5117 46.7916V28.6605C15.5117 26.2237 17.4871 24.2483 19.9239 24.2483C22.3606 24.2483 24.336 26.2237 24.336 28.6605V28.7983C24.336 31.3112 26.3731 33.3483 28.886 33.3483H29.0239C31.5368 33.3483 33.5739 31.3112 33.5739 28.7983V28.6605C33.5739 26.2237 35.5493 24.2483 37.986 24.2483C40.4228 24.2483 42.3982 26.2237 42.3982 28.6605V46.7915Z" fill="black" fill-opacity="0.4" stroke="black" stroke-opacity="0.4" stroke-width="0.225476"/>
</svg>
