<svg width="57" height="56" viewBox="0 0 57 56" fill="none" xmlns="http://www.w3.org/2000/svg">
<g clip-path="url(#clip0_69_1440)">
<rect x="9.41992" y="4.66211" width="6.65851" height="6.65851" fill="black" fill-opacity="0.4"/>
<rect x="20.0537" y="4.48877" width="5.69195" height="5.69195" fill="black" fill-opacity="0.4"/>
<rect x="29.7188" y="5.69092" width="4.618" height="4.618" fill="black" fill-opacity="0.4"/>
<rect x="38.3091" y="7.83789" width="2.47009" height="2.47009" fill="black" fill-opacity="0.4"/>
<rect x="38.3091" y="15.4009" width="3.54404" height="3.54404" fill="black" fill-opacity="0.4"/>
<rect x="38.3091" y="24.5298" width="3.54404" height="3.54404" fill="black" fill-opacity="0.4"/>
<rect x="45.8276" y="25.0688" width="2.47009" height="2.47009" fill="black" fill-opacity="0.4"/>
<rect x="45.8276" y="15.9399" width="2.47009" height="2.47009" fill="black" fill-opacity="0.4"/>
<rect x="45.8276" y="34.1958" width="2.47009" height="2.47009" fill="black" fill-opacity="0.4"/>
<rect x="38.3091" y="33.6587" width="3.54404" height="3.54404" fill="black" fill-opacity="0.4"/>
<rect x="38.3091" y="42.1826" width="2.47009" height="2.47009" fill="black" fill-opacity="0.4"/>
<rect x="29.7188" y="14.8667" width="4.618" height="4.618" fill="black" fill-opacity="0.4"/>
<rect x="29.7188" y="23.9937" width="4.618" height="4.618" fill="black" fill-opacity="0.4"/>
<rect x="29.7188" y="33.1221" width="4.618" height="4.618" fill="black" fill-opacity="0.4"/>
<rect x="29.7188" y="42.1826" width="4.618" height="4.618" fill="black" fill-opacity="0.4"/>
<rect x="20.0537" y="14.3276" width="5.69195" height="5.69195" fill="black" fill-opacity="0.4"/>
<rect x="20.0537" y="23.4556" width="5.69195" height="5.69195" fill="black" fill-opacity="0.4"/>
<rect x="20.0537" y="32.5854" width="5.69195" height="5.69195" fill="black" fill-opacity="0.4"/>
<rect x="20.0537" y="42.1362" width="5.69195" height="5.69195" fill="black" fill-opacity="0.4"/>
<rect x="9.41992" y="13.7896" width="6.65851" height="6.65851" fill="black" fill-opacity="0.4"/>
<rect x="9.41992" y="22.9209" width="6.65851" height="6.65851" fill="black" fill-opacity="0.4"/>
<rect x="9.41992" y="32.0479" width="6.65851" height="6.65851" fill="black" fill-opacity="0.4"/>
<rect x="9.41992" y="41.1533" width="6.65851" height="6.65851" fill="black" fill-opacity="0.4"/>
</g>
<defs>
<clipPath id="clip0_69_1440">
<rect width="39.6289" height="43.1729" fill="white" transform="translate(9.41992 4.66211)"/>
</clipPath>
</defs>
</svg>
