<svg width="193" height="56" viewBox="0 0 193 56" fill="none" xmlns="http://www.w3.org/2000/svg">
<path d="M42.2146 46.7915C42.2146 49.3425 44.2825 51.4105 46.8335 51.4105C49.3845 51.4105 51.4525 49.3425 51.4525 46.7915V28.7294C51.4525 26.1784 49.3498 24.1105 46.7988 24.1105C44.2859 24.1105 42.2146 22.0734 42.2146 19.5605V19.4226C42.2146 16.9858 40.2392 15.0105 37.8024 15.0105C35.3657 15.0105 33.3903 16.9858 33.3903 19.4226V19.5605C33.3903 22.0734 31.3532 24.1105 28.8403 24.1105H28.7024C26.1895 24.1105 24.1524 22.0734 24.1524 19.5605V19.4225C24.1524 16.9858 22.177 15.0105 19.7403 15.0105C17.3036 15.0105 15.3282 13.0009 15.3282 10.5642C15.3282 8.08934 13.322 6.04834 10.8472 6.04834H10.7093C8.15831 6.04834 6.09033 8.11631 6.09033 10.6673V46.7916C6.09033 49.3425 8.15829 51.4105 10.7092 51.4105C13.2602 51.4105 15.3281 49.3425 15.3281 46.7916V28.6605C15.3281 26.2237 17.3035 24.2483 19.7403 24.2483C22.177 24.2483 24.1524 26.2237 24.1524 28.6605V28.7983C24.1524 31.3112 26.1895 33.3483 28.7024 33.3483H28.8403C31.3532 33.3483 33.3903 31.3112 33.3903 28.7983V28.6605C33.3903 26.2237 35.3657 24.2483 37.8024 24.2483C40.2392 24.2483 42.2146 26.2237 42.2146 28.6605V46.7915Z" fill="black" fill-opacity="0.4" stroke="black" stroke-opacity="0.4" stroke-width="0.225476"/>
<path d="M78.5419 43.9468V10.8324H84.9833V43.9468H78.5419ZM84.0761 43.9468V38.2765H98.3652V43.9468H84.0761ZM114.69 44.8087C112.512 44.8087 110.592 44.4609 108.929 43.7653C107.266 43.0698 105.859 42.1323 104.71 40.9529C103.561 39.7432 102.684 38.3824 102.079 36.8703C101.505 35.3582 101.217 33.7857 101.217 32.1526V31.2C101.217 29.5065 101.52 27.9037 102.125 26.3916C102.76 24.8493 103.652 23.4885 104.801 22.309C105.98 21.0994 107.402 20.1619 109.065 19.4966C110.728 18.801 112.603 18.4533 114.69 18.4533C116.777 18.4533 118.652 18.801 120.315 19.4966C121.978 20.1619 123.384 21.0994 124.533 22.309C125.713 23.4885 126.605 24.8493 127.21 26.3916C127.815 27.9037 128.117 29.5065 128.117 31.2V32.1526C128.117 33.7857 127.815 35.3582 127.21 36.8703C126.635 38.3824 125.773 39.7432 124.624 40.9529C123.475 42.1323 122.069 43.0698 120.406 43.7653C118.742 44.4609 116.837 44.8087 114.69 44.8087ZM114.69 39.4106C116.232 39.4106 117.533 39.0779 118.591 38.4126C119.649 37.717 120.451 36.7947 120.995 35.6455C121.54 34.4661 121.812 33.1355 121.812 31.6536C121.812 30.1416 121.524 28.8109 120.95 27.6618C120.406 26.4824 119.589 25.56 118.5 24.8947C117.442 24.1991 116.172 23.8514 114.69 23.8514C113.208 23.8514 111.923 24.1991 110.834 24.8947C109.776 25.56 108.959 26.4824 108.385 27.6618C107.81 28.8109 107.523 30.1416 107.523 31.6536C107.523 33.1355 107.795 34.4661 108.339 35.6455C108.914 36.7947 109.73 37.717 110.789 38.4126C111.847 39.0779 113.148 39.4106 114.69 39.4106ZM143.255 53.6543C142.075 53.6543 140.866 53.6089 139.626 53.5182C138.416 53.4275 137.282 53.3065 136.224 53.1553V47.8933C137.312 48.0142 138.477 48.1201 139.717 48.2108C140.957 48.3318 142.121 48.3923 143.21 48.3923C145.236 48.3923 146.869 48.1503 148.109 47.6665C149.379 47.1826 150.301 46.4115 150.876 45.353C151.481 44.3248 151.783 43.0093 151.783 41.4065V36.5527L153.144 33.4681C153.053 35.7362 152.584 37.6717 151.738 39.2745C150.891 40.847 149.742 42.0567 148.29 42.9034C146.839 43.72 145.16 44.1282 143.255 44.1282C141.561 44.1282 140.019 43.8107 138.628 43.1756C137.267 42.5406 136.088 41.6635 135.09 40.5446C134.122 39.4257 133.366 38.1102 132.822 36.5981C132.277 35.086 132.005 33.4681 132.005 31.7444V30.7918C132.005 29.068 132.277 27.4652 132.822 25.9834C133.396 24.4713 134.198 23.1558 135.226 22.0369C136.254 20.9179 137.479 20.0561 138.9 19.4512C140.321 18.8464 141.894 18.544 143.618 18.544C145.644 18.544 147.398 18.9825 148.88 19.8595C150.392 20.7365 151.571 22.0066 152.418 23.6699C153.265 25.3332 153.734 27.3745 153.824 29.7938L152.736 29.9752V19.3151H157.725V41.0436C157.725 44.0375 157.211 46.4568 156.183 48.3015C155.155 50.1463 153.567 51.492 151.42 52.3388C149.303 53.2158 146.581 53.6543 143.255 53.6543ZM145.069 38.7301C146.279 38.7301 147.383 38.458 148.381 37.9136C149.379 37.3693 150.18 36.583 150.785 35.5548C151.39 34.5266 151.692 33.2867 151.692 31.8351V30.2474C151.692 28.8563 151.375 27.6769 150.74 26.7092C150.135 25.7414 149.333 25.0156 148.335 24.5318C147.337 24.0177 146.249 23.7606 145.069 23.7606C143.739 23.7606 142.559 24.0782 141.531 24.7132C140.533 25.3181 139.747 26.1799 139.172 27.2989C138.598 28.4178 138.31 29.7484 138.31 31.2907C138.31 32.8028 138.598 34.1183 139.172 35.2372C139.747 36.3562 140.533 37.2181 141.531 37.8229C142.559 38.4277 143.739 38.7301 145.069 38.7301ZM176.443 44.8087C174.265 44.8087 172.345 44.4609 170.682 43.7653C169.018 43.0698 167.612 42.1323 166.463 40.9529C165.314 39.7432 164.437 38.3824 163.832 36.8703C163.257 35.3582 162.97 33.7857 162.97 32.1526V31.2C162.97 29.5065 163.272 27.9037 163.877 26.3916C164.512 24.8493 165.405 23.4885 166.554 22.309C167.733 21.0994 169.154 20.1619 170.818 19.4966C172.481 18.801 174.356 18.4533 176.443 18.4533C178.529 18.4533 180.404 18.801 182.068 19.4966C183.731 20.1619 185.137 21.0994 186.286 22.309C187.466 23.4885 188.358 24.8493 188.963 26.3916C189.567 27.9037 189.87 29.5065 189.87 31.2V32.1526C189.87 33.7857 189.567 35.3582 188.963 36.8703C188.388 38.3824 187.526 39.7432 186.377 40.9529C185.228 42.1323 183.822 43.0698 182.158 43.7653C180.495 44.4609 178.59 44.8087 176.443 44.8087ZM176.443 39.4106C177.985 39.4106 179.285 39.0779 180.344 38.4126C181.402 37.717 182.204 36.7947 182.748 35.6455C183.292 34.4661 183.564 33.1355 183.564 31.6536C183.564 30.1416 183.277 28.8109 182.703 27.6618C182.158 26.4824 181.342 25.56 180.253 24.8947C179.195 24.1991 177.924 23.8514 176.443 23.8514C174.961 23.8514 173.676 24.1991 172.587 24.8947C171.528 25.56 170.712 26.4824 170.137 27.6618C169.563 28.8109 169.275 30.1416 169.275 31.6536C169.275 33.1355 169.548 34.4661 170.092 35.6455C170.667 36.7947 171.483 37.717 172.541 38.4126C173.6 39.0779 174.9 39.4106 176.443 39.4106Z" fill="black" fill-opacity="0.4"/>
</svg>
