<svg width="193" height="56" viewBox="0 0 193 56" fill="none" xmlns="http://www.w3.org/2000/svg">
<g clip-path="url(#clip0_69_1470)">
<path fill-rule="evenodd" clip-rule="evenodd" d="M47.0082 18.1445V26.6642H36.1284V24.2375L47.0082 18.1445Z" fill="black" fill-opacity="0.4"/>
<path d="M36.4121 24.4037L46.7246 18.6285V26.3805H36.4121V24.4037Z" stroke="black" stroke-opacity="0.4" stroke-width="0.567353"/>
<path fill-rule="evenodd" clip-rule="evenodd" d="M47.0082 18.1447L36.1283 24.2376L28.106 19.7459V7.56006L47.0082 18.1447Z" fill="black" fill-opacity="0.4"/>
<path fill-rule="evenodd" clip-rule="evenodd" d="M28.1062 7.56006V19.7459L20.0864 24.2376L9.20654 18.1447L28.1062 7.56006Z" fill="black" fill-opacity="0.4"/>
<path fill-rule="evenodd" clip-rule="evenodd" d="M20.0864 24.2375V33.2204L9.20654 39.3128V18.1445L20.0864 24.2375Z" fill="black" fill-opacity="0.4"/>
<path fill-rule="evenodd" clip-rule="evenodd" d="M28.1062 37.7119V49.8978L9.20654 39.3127L20.0864 33.2202L28.1062 37.7119Z" fill="black" fill-opacity="0.4"/>
<path fill-rule="evenodd" clip-rule="evenodd" d="M47.0082 39.3127L28.106 49.8978V37.7119L36.1283 33.2202L47.0082 39.3127Z" fill="black" fill-opacity="0.4"/>
<path fill-rule="evenodd" clip-rule="evenodd" d="M47.0082 30.7944V39.3136L36.1284 33.2212V30.7944H47.0082Z" fill="black" fill-opacity="0.4"/>
</g>
<path d="M78.6337 43.9468V10.8324H85.0751V43.9468H78.6337ZM84.1679 43.9468V38.2765H98.457V43.9468H84.1679ZM114.782 44.8087C112.604 44.8087 110.684 44.4609 109.021 43.7653C107.357 43.0698 105.951 42.1323 104.802 40.9529C103.653 39.7432 102.776 38.3824 102.171 36.8703C101.596 35.3582 101.309 33.7857 101.309 32.1526V31.2C101.309 29.5065 101.612 27.9037 102.216 26.3916C102.851 24.8493 103.744 23.4885 104.893 22.309C106.072 21.0994 107.493 20.1619 109.157 19.4966C110.82 18.801 112.695 18.4533 114.782 18.4533C116.868 18.4533 118.743 18.801 120.407 19.4966C122.07 20.1619 123.476 21.0994 124.625 22.309C125.805 23.4885 126.697 24.8493 127.302 26.3916C127.906 27.9037 128.209 29.5065 128.209 31.2V32.1526C128.209 33.7857 127.906 35.3582 127.302 36.8703C126.727 38.3824 125.865 39.7432 124.716 40.9529C123.567 42.1323 122.161 43.0698 120.497 43.7653C118.834 44.4609 116.929 44.8087 114.782 44.8087ZM114.782 39.4106C116.324 39.4106 117.624 39.0779 118.683 38.4126C119.741 37.717 120.543 36.7947 121.087 35.6455C121.631 34.4661 121.904 33.1355 121.904 31.6536C121.904 30.1416 121.616 28.8109 121.042 27.6618C120.497 26.4824 119.681 25.56 118.592 24.8947C117.534 24.1991 116.264 23.8514 114.782 23.8514C113.3 23.8514 112.015 24.1991 110.926 24.8947C109.867 25.56 109.051 26.4824 108.476 27.6618C107.902 28.8109 107.614 30.1416 107.614 31.6536C107.614 33.1355 107.887 34.4661 108.431 35.6455C109.006 36.7947 109.822 37.717 110.881 38.4126C111.939 39.0779 113.239 39.4106 114.782 39.4106ZM143.347 53.6543C142.167 53.6543 140.958 53.6089 139.718 53.5182C138.508 53.4275 137.374 53.3065 136.316 53.1553V47.8933C137.404 48.0142 138.569 48.1201 139.808 48.2108C141.048 48.3318 142.213 48.3923 143.301 48.3923C145.328 48.3923 146.961 48.1503 148.2 47.6665C149.471 47.1826 150.393 46.4115 150.968 45.353C151.572 44.3248 151.875 43.0093 151.875 41.4065V36.5527L153.236 33.4681C153.145 35.7362 152.676 37.6717 151.829 39.2745C150.983 40.847 149.833 42.0567 148.382 42.9034C146.93 43.72 145.252 44.1282 143.347 44.1282C141.653 44.1282 140.111 43.8107 138.72 43.1756C137.359 42.5406 136.179 41.6635 135.182 40.5446C134.214 39.4257 133.458 38.1102 132.913 36.5981C132.369 35.086 132.097 33.4681 132.097 31.7444V30.7918C132.097 29.068 132.369 27.4652 132.913 25.9834C133.488 24.4713 134.289 23.1558 135.318 22.0369C136.346 20.9179 137.571 20.0561 138.992 19.4512C140.413 18.8464 141.986 18.544 143.71 18.544C145.736 18.544 147.49 18.9825 148.972 19.8595C150.484 20.7365 151.663 22.0066 152.51 23.6699C153.357 25.3332 153.825 27.3745 153.916 29.7938L152.827 29.9752V19.3151H157.817V41.0436C157.817 44.0375 157.303 46.4568 156.275 48.3015C155.247 50.1463 153.659 51.492 151.512 52.3388C149.395 53.2158 146.673 53.6543 143.347 53.6543ZM145.161 38.7301C146.371 38.7301 147.475 38.458 148.473 37.9136C149.471 37.3693 150.272 36.583 150.877 35.5548C151.482 34.5266 151.784 33.2867 151.784 31.8351V30.2474C151.784 28.8563 151.467 27.6769 150.831 26.7092C150.227 25.7414 149.425 25.0156 148.427 24.5318C147.429 24.0177 146.341 23.7606 145.161 23.7606C143.831 23.7606 142.651 24.0782 141.623 24.7132C140.625 25.3181 139.839 26.1799 139.264 27.2989C138.69 28.4178 138.402 29.7484 138.402 31.2907C138.402 32.8028 138.69 34.1183 139.264 35.2372C139.839 36.3562 140.625 37.2181 141.623 37.8229C142.651 38.4277 143.831 38.7301 145.161 38.7301ZM176.534 44.8087C174.357 44.8087 172.437 44.4609 170.773 43.7653C169.11 43.0698 167.704 42.1323 166.555 40.9529C165.406 39.7432 164.529 38.3824 163.924 36.8703C163.349 35.3582 163.062 33.7857 163.062 32.1526V31.2C163.062 29.5065 163.364 27.9037 163.969 26.3916C164.604 24.8493 165.496 23.4885 166.645 22.309C167.825 21.0994 169.246 20.1619 170.91 19.4966C172.573 18.801 174.448 18.4533 176.534 18.4533C178.621 18.4533 180.496 18.801 182.159 19.4966C183.823 20.1619 185.229 21.0994 186.378 22.309C187.557 23.4885 188.45 24.8493 189.054 26.3916C189.659 27.9037 189.962 29.5065 189.962 31.2V32.1526C189.962 33.7857 189.659 35.3582 189.054 36.8703C188.48 38.3824 187.618 39.7432 186.469 40.9529C185.32 42.1323 183.913 43.0698 182.25 43.7653C180.587 44.4609 178.682 44.8087 176.534 44.8087ZM176.534 39.4106C178.077 39.4106 179.377 39.0779 180.436 38.4126C181.494 37.717 182.295 36.7947 182.84 35.6455C183.384 34.4661 183.656 33.1355 183.656 31.6536C183.656 30.1416 183.369 28.8109 182.794 27.6618C182.25 26.4824 181.434 25.56 180.345 24.8947C179.286 24.1991 178.016 23.8514 176.534 23.8514C175.053 23.8514 173.767 24.1991 172.679 24.8947C171.62 25.56 170.804 26.4824 170.229 27.6618C169.654 28.8109 169.367 30.1416 169.367 31.6536C169.367 33.1355 169.639 34.4661 170.184 35.6455C170.758 36.7947 171.575 37.717 172.633 38.4126C173.692 39.0779 174.992 39.4106 176.534 39.4106Z" fill="black" fill-opacity="0.4"/>
<defs>
<clipPath id="clip0_69_1470">
<rect width="37.8018" height="42.338" fill="white" transform="translate(9.20654 7.56006)"/>
</clipPath>
</defs>
</svg>
