<svg width="25" height="16" viewBox="0 0 25 16" fill="none" xmlns="http://www.w3.org/2000/svg">
<path d="M19.8876 1.0378C20.9864 0.874684 22.2596 0.882035 22.7168 1.05433C23.2701 1.26282 23.7388 1.6974 24.1178 2.3538C25.0766 4.01461 24.6248 5.53258 22.2889 8.49885C18.7702 12.9673 17.3663 13.4906 17.6533 10.2274L17.8091 8.4555L16.6975 8.85537C16.0861 9.07522 14.0618 10.1337 12.1986 11.2074C10.3358 12.2811 7.3757 13.8166 5.6208 14.6195C2.03461 16.2602 1.14457 16.3245 0.523572 14.9889C-0.18898 13.4567 0.202249 13.119 6.95343 9.44065L13.1134 6.08467L11.9827 5.7082C11.3609 5.50124 10.6377 5.09761 10.3754 4.81122C9.77401 4.15471 9.76262 2.34775 10.3576 2.00426C10.5929 1.86839 12.3837 1.66214 14.3376 1.54615C16.2914 1.42988 18.7889 1.20091 19.8876 1.0378Z" fill="black"/>
</svg>
